<svg id="Layer_1" data-name="Layer 1" xmlns="http://www.w3.org/2000/svg" xmlns:xlink="http://www.w3.org/1999/xlink" viewBox="0 0 2085.33 186.23"><defs><style>.cls-1{fill:none;stroke-width:5.6px;stroke:url(#linear-gradient);}</style><linearGradient id="linear-gradient" x1="-54.05" y1="-456.26" x2="891.21" y2="506.82" gradientTransform="matrix(1, 0, 0, -1, 0, 724.77)" gradientUnits="userSpaceOnUse"><stop offset="0" stop-color="#304ffe"/><stop offset="0.28" stop-color="#62ca83"/><stop offset="0.5" stop-color="#76fc50"/><stop offset="0.78" stop-color="#57af9e"/><stop offset="1" stop-color="#304ffe"/></linearGradient></defs><path id="Rectangle" class="cls-1" d="M1465.39,713.73l-.75,4.7-.53,3.36-3.18-1.43c-4.26-1.9-10.53-4.69-18.6-8.18-16.13-7-39.41-16.87-68.06-28.37-57.3-23-136.06-52.53-221.91-78.64S973.53,556.33,887.79,547s-164.5-5.4-221.73,22.25c-32.87,15.87-63.15,32.68-92.46,48.95l-.37.2C544,634.59,515.81,650.26,486.85,664c-58.1,27.63-119.08,47.57-196.26,48.57-86,1.13-149.16-22-217.7-49l-12.27-4.87c-65.18-25.85-136.49-54.14-236.94-67.58-103-13.78-213.95,4.77-299,26.68-42.55,11-78.68,22.78-104.18,31.86-12.75,4.55-22.85,8.4-29.76,11.13-2.82,1.11-5.12,2-6.84,2.74" transform="translate(617.17 -539.62)"/></svg>